<?xml version="1.0" encoding="utf-8"?>
<!-- Generator: Adobe Illustrator 15.0.0, SVG Export Plug-In . SVG Version: 6.00 Build 0)  -->
<!DOCTYPE svg PUBLIC "-//W3C//DTD SVG 1.1//EN" "http://www.w3.org/Graphics/SVG/1.1/DTD/svg11.dtd">
<svg version="1.1" id="Layer_1" xmlns="http://www.w3.org/2000/svg" xmlns:xlink="http://www.w3.org/1999/xlink" x="0px" y="0px"
	 width="70px" height="60px" viewBox="0 0 70 60" enable-background="new 0 0 70 60" xml:space="preserve">
<g>
	<g>
		<path fill="#002561" d="M25.373,16.093c-2.062,0.756-4.348-0.301-5.104-2.365c-0.758-2.064,0.302-4.349,2.363-5.104l21.996-8.066
			c2.062-0.755,4.347,0.304,5.104,2.367c0.756,2.062-0.303,4.348-2.367,5.104L25.373,16.093z"/>
		<path fill="#002561" d="M25.373,28c-2.062,0.754-4.348-0.305-5.104-2.369c-0.758-2.064,0.302-4.346,2.363-5.104l21.996-8.063
			c2.062-0.756,4.347,0.303,5.104,2.365c0.756,2.062-0.303,4.348-2.367,5.104L25.373,28z"/>
		<path fill="#002561" d="M25.373,39.904c-2.062,0.757-4.348-0.303-5.104-2.367c-0.758-2.062,0.302-4.347,2.363-5.104l21.996-8.065
			c2.062-0.757,4.347,0.305,5.104,2.367c0.756,2.062-0.303,4.345-2.367,5.104L25.373,39.904z"/>
	</g>
	<g>
		<g>
			<polygon fill="#002561" points="1.151,49.797 8.53,49.797 8.53,51.802 3.757,51.802 3.757,53.544 8.335,53.544 8.335,55.626 
				3.757,55.626 3.757,57.426 8.61,57.426 8.61,59.444 1.151,59.444 1.151,49.797 			"/>
		</g>
		<g>
			<polygon fill="#002561" points="19.995,49.797 22.624,49.797 22.624,59.452 19.995,59.452 19.995,49.797 			"/>
		</g>
		<g>
			<path fill="#002561" d="M32.199,50.107l-0.178,2.065c-2.119-1.228-5.369-0.838-5.428,2.382c-0.06,3.218,3.348,3.685,5.508,2.594
				l0.136,2.109c-3.814,1.186-8.369-0.021-8.35-4.703C23.904,49.969,28.499,48.702,32.199,50.107L32.199,50.107z"/>
		</g>
		<g>
			<path fill="#002561" d="M39.927,49.957l-0.177,2.012c-1.324-0.729-3.836-0.748-3.836,0.393c0,1.697,4.479,0.473,4.479,4.102
				c0,3.568-4.264,3.608-7.029,2.779l0.198-2.126c1.731,0.805,4.184,0.983,4.184-0.415c0-1.538-4.496-0.671-4.496-4.121
				C33.249,49.749,36.753,48.991,39.927,49.957L39.927,49.957z"/>
		</g>
		<g>
			<path fill="#002561" d="M47.846,49.957l-0.175,2.012c-1.323-0.729-3.834-0.748-3.834,0.393c0,1.697,4.479,0.473,4.479,4.102
				c0,3.568-4.267,3.608-7.03,2.779l0.196-2.126c1.734,0.805,4.183,0.983,4.183-0.415c0-1.538-4.495-0.671-4.495-4.121
				C41.17,49.749,44.671,48.991,47.846,49.957L47.846,49.957z"/>
		</g>
		<g>
			<polygon fill="#002561" points="59.934,49.797 63.261,49.797 66.435,56.024 66.435,49.797 68.849,49.797 68.849,59.452 
				65.715,59.452 62.366,53.106 62.366,59.452 59.934,59.452 59.934,49.797 			"/>
		</g>
		<g>
			<path fill="#002561" d="M53.882,49.565c2.726,0,4.807,1.595,4.807,5.08c0,3.326-2.09,5.041-4.807,5.041
				c-2.712,0-4.79-1.672-4.79-5.041C49.092,51.16,51.158,49.565,53.882,49.565L53.882,49.565z M51.778,54.646
				c0,1.47,0.632,3.137,2.104,3.135c1.472,0,2.089-1.665,2.101-3.135c0.01-1.334-0.629-3.133-2.101-3.135
				C52.41,51.511,51.778,53.174,51.778,54.646L51.778,54.646z"/>
		</g>
		<g>
			<path fill="#002561" d="M12.948,53.864h1.442c0.648,0.013,1.232-0.38,1.225-1.09c-0.005-0.63-0.522-1.079-1.188-1.069h-1.479
				V53.864L12.948,53.864z M10.436,49.797h4.732c1.283,0,3.073,0.564,3.073,2.57c0,1.282-0.58,2-1.687,2.334
				c0.051-0.002,0.631,0.25,0.871,0.976c0.009,0.021,1.353,3.768,1.367,3.775h-2.788l-0.993-2.902
				c-0.154-0.444-0.484-0.739-0.956-0.739c-0.407,0-1.051-0.025-1.051,0v3.642h-2.569V49.797L10.436,49.797z"/>
		</g>
	</g>
</g>
</svg>
